<?xml version="1.0" encoding="utf-8"?>
<!-- Generator: Adobe Illustrator 20.1.0, SVG Export Plug-In . SVG Version: 6.00 Build 0)  -->
<svg version="1.1" id="Layer_1" xmlns="http://www.w3.org/2000/svg" xmlns:xlink="http://www.w3.org/1999/xlink" x="0px" y="0px"
	 viewBox="0 0 47.3 16.2" style="enable-background:new 0 0 47.3 16.2;" xml:space="preserve">
<style type="text/css">
	.st0{fill:none;stroke:#FFFFFF;stroke-width:0.75;stroke-linecap:round;stroke-miterlimit:10;}
	.st1{fill:#FF4000;}
</style>
<g>
	<path class="st0" d="M3.4,10.1"/>
</g>
<g>
	<g>
		<g>
			<path class="st1" d="M6,10c-0.4-0.2-1-0.1-1.2,0.3c-0.2,0.4-0.1,1,0.3,1.2c0.4,0.2,1,0.1,1.2-0.3c0.1-0.1,0.1-0.3,0.1-0.4
				C6.4,10.5,6.3,10.2,6,10z"/>
			<circle class="st1" cx="10.2" cy="8.1" r="0.9"/>
			<path class="st1" d="M5.3,6.2c0.2,0.1,0.5,0,0.7-0.1C6.2,6,6.3,5.8,6.4,5.6c0-0.1,0-0.1,0-0.2c0-0.1,0-0.3-0.1-0.4
				C6,4.5,5.5,4.4,5.1,4.6C4.7,4.9,4.5,5.4,4.8,5.8C4.9,6,5.1,6.2,5.3,6.2z"/>
		</g>
		<path class="st1" d="M9,10C8.8,9.9,8.7,9.8,8.6,9.6L8.1,8.7C8,8.6,7.9,8.4,8,8.2C8,8.1,8,8,8,7.9c0-0.2,0-0.3,0.1-0.5l0.5-0.9
			C8.7,6.4,8.8,6.3,9,6.2C9.2,6.1,9.3,6,9.4,5.8c0.1-0.1,0.1-0.3,0.1-0.4c0-0.1,0-0.2,0-0.2C9.5,4.9,9.3,4.7,9.1,4.6
			C8.7,4.4,8.2,4.5,7.9,4.9C7.8,5.1,7.8,5.3,7.8,5.5c0,0.2,0,0.3-0.1,0.5L7.2,6.9C7.1,7.1,7,7.2,6.8,7.3c0,0-0.1,0-0.1,0.1
			c0,0-0.1,0-0.1,0.1C6.4,7.5,6.2,7.6,6.1,7.6H5c-0.2,0-0.3-0.1-0.5-0.2C4.4,7.3,4.1,7.2,3.9,7.2c-0.4,0-0.8,0.4-0.8,0.8
			c0,0.2,0.1,0.5,0.2,0.7C3.5,8.9,3.7,9,4,9c0.2,0,0.4-0.1,0.6-0.2C4.7,8.7,4.8,8.6,5,8.6h1c0.2,0,0.3,0.1,0.5,0.2
			c0.1,0.1,0.2,0.1,0.3,0.2C7,9,7.1,9.1,7.2,9.3l0.5,0.9c0.1,0.1,0.1,0.3,0.1,0.5c0,0.2,0,0.4,0.1,0.6c0.2,0.4,0.7,0.5,1.1,0.3
			c0.2-0.1,0.4-0.3,0.4-0.5s0-0.5-0.1-0.7C9.3,10.2,9.2,10.1,9,10z"/>
	</g>
</g>
<g>
	<path d="M16.4,11V5.2h1.2v2.6h0l2.2-2.6h1.4L19,7.7l2.3,3.2h-1.5l-1.7-2.4l-0.5,0.7V11H16.4z"/>
	<path d="M27,8.1c0,1.8-1.1,3-2.8,3c-1.7,0-2.8-1.2-2.8-3c0-1.8,1.1-3,2.8-3C25.9,5.1,27,6.2,27,8.1z M22.6,8.1c0,1.2,0.6,2,1.6,2
		c0.9,0,1.6-0.8,1.6-2c0-1.2-0.6-2-1.6-2S22.6,6.9,22.6,8.1z"/>
	<path d="M29,8.8c0,0.7,0.4,1.2,1.2,1.2c0.8,0,1.2-0.5,1.2-1.2V5.2h1.2v3.8c0,1.3-0.9,2.1-2.4,2.1c-1.5,0-2.4-0.9-2.4-2.1V5.2H29
		V8.8z"/>
	<path d="M35,11V6.2h-1.7v-1h4.6v1h-1.7V11H35z"/>
	<path d="M39.9,11V6.2h-1.7v-1h4.6v1h-1.7V11H39.9z"/>
</g>
</svg>
