<?xml version="1.0" encoding="utf-8"?>
<!-- Generator: Adobe Illustrator 20.1.0, SVG Export Plug-In . SVG Version: 6.00 Build 0)  -->
<svg version="1.1" id="Layer_1" xmlns="http://www.w3.org/2000/svg" xmlns:xlink="http://www.w3.org/1999/xlink" x="0px" y="0px"
	 viewBox="0 0 16.2 16.2" style="enable-background:new 0 0 16.2 16.2;" xml:space="preserve">
<style type="text/css">
	.st0{fill:#FF4000;}
	.st1{fill:#FFFFFF;}
</style>
<path class="st0" d="M12.1,14.1h-8c-1.1,0-2-0.9-2-2v-8c0-1.1,0.9-2,2-2h8c1.1,0,2,0.9,2,2v8C14.1,13.2,13.2,14.1,12.1,14.1z"/>
<g>
	<path class="st1" d="M7,9.9c-0.4-0.2-1-0.1-1.2,0.3c-0.2,0.4-0.1,1,0.3,1.2c0.4,0.2,1,0.1,1.2-0.3c0.1-0.1,0.1-0.3,0.1-0.4
		C7.4,10.4,7.3,10.1,7,9.9z"/>
	<circle class="st1" cx="11.2" cy="8" r="0.9"/>
	<path class="st1" d="M6.3,6.1c0.2,0.1,0.5,0,0.7-0.1c0.2-0.1,0.3-0.3,0.4-0.5c0-0.1,0-0.1,0-0.2c0-0.1,0-0.3-0.1-0.4
		C7,4.4,6.5,4.3,6.1,4.5C5.7,4.8,5.5,5.3,5.8,5.7C5.9,5.9,6.1,6.1,6.3,6.1z"/>
	<path class="st1" d="M10,9.9C9.8,9.8,9.7,9.7,9.6,9.5L9.1,8.6C9,8.5,8.9,8.3,9,8.1C9,8,9,7.9,9,7.8c0-0.2,0-0.3,0.1-0.5l0.5-0.9
		C9.7,6.3,9.8,6.2,10,6.1c0.2-0.1,0.4-0.2,0.5-0.4c0.1-0.1,0.1-0.3,0.1-0.4c0-0.1,0-0.2,0-0.2c-0.1-0.2-0.2-0.4-0.4-0.5
		C9.7,4.3,9.2,4.4,9,4.8C8.8,5,8.8,5.2,8.8,5.4c0,0.2,0,0.3-0.1,0.5L8.2,6.8C8.1,7,8,7.1,7.8,7.2c0,0-0.1,0-0.1,0.1
		c0,0-0.1,0-0.1,0.1C7.4,7.4,7.2,7.5,7.1,7.5H6c-0.2,0-0.3-0.1-0.5-0.2C5.4,7.2,5.2,7.1,4.9,7.1C4.5,7.1,4.1,7.5,4.1,8
		c0,0.2,0.1,0.5,0.2,0.7C4.5,8.8,4.7,8.9,5,8.9c0.2,0,0.4-0.1,0.6-0.2C5.7,8.6,5.9,8.5,6,8.5h1c0.2,0,0.3,0.1,0.5,0.2
		c0.1,0.1,0.2,0.1,0.3,0.2C8,8.9,8.1,9,8.2,9.2l0.5,0.9c0.1,0.1,0.1,0.3,0.1,0.5c0,0.2,0,0.4,0.1,0.6c0.2,0.4,0.7,0.5,1.1,0.3
		c0.2-0.1,0.4-0.3,0.4-0.5c0.1-0.2,0-0.5-0.1-0.7C10.3,10.1,10.2,10,10,9.9z"/>
</g>
</svg>
